<svg width="601" height="653" viewBox="0 0 601 653" fill="none" xmlns="http://www.w3.org/2000/svg">
<path d="M691.033 603.059C718.977 720.156 681.61 771.033 578.93 755.69C476.25 740.346 390.141 763.362 320.605 824.737C251.068 886.112 173.084 893.381 86.6504 846.541C0.217174 799.702 -21.5536 718.138 21.3381 601.847C64.2297 485.557 69.7536 374.112 37.9098 267.512C6.06603 160.913 35.9602 109.632 127.592 113.67C219.225 117.708 298.834 92.6732 366.421 38.5658C434.008 -15.5415 500.945 -12.715 567.232 47.0454C633.519 106.806 663.738 185.14 657.889 282.049C652.04 378.957 663.088 485.961 691.033 603.059Z" fill="#0D0D0D"/>
</svg>
