<svg width="500" height="478" viewBox="0 0 500 478" fill="none" xmlns="http://www.w3.org/2000/svg">
<path d="M476.577 232.809C478.665 244.503 461.75 250.768 425.832 251.603C389.914 252.438 389.496 265.177 424.579 289.818C459.662 314.46 482.842 338.893 494.119 363.117C505.395 387.341 498.086 397.991 472.192 395.067C446.297 392.144 416.226 378.152 381.978 353.093C347.731 328.034 329.563 320.516 327.475 330.54C325.386 340.563 324.76 358.94 325.595 385.67C326.43 412.4 318.077 407.597 300.536 371.261C282.994 334.925 271.509 350.796 266.079 418.874C260.65 486.951 253.967 495.722 246.032 445.186C238.097 394.65 231.414 363.952 225.985 353.093C220.555 342.234 203.849 357.27 175.866 398.2C147.883 439.13 133.474 447.901 132.639 424.512C131.803 401.123 120.527 392.353 98.8088 398.2C77.0908 404.047 82.9379 386.088 116.35 344.322C149.763 302.557 157.072 283.136 138.277 286.06C119.483 288.983 105.909 287.313 97.5558 281.048C89.2028 274.783 76.4643 268.1 59.3405 261C42.2166 253.9 39.2931 244.503 50.5697 232.809C61.8464 221.114 51.405 207.749 19.2456 192.714C-12.9137 177.678 -4.76948 169.952 43.6784 169.534C92.1263 169.116 118.021 165.566 121.362 158.884C124.703 152.201 111.13 132.989 80.6408 101.247C50.1521 69.5058 38.8754 47.3701 46.8108 34.8405C54.7463 22.3108 70.4083 19.5961 93.797 26.6962C117.186 33.7963 135.562 37.764 148.927 38.5993C162.292 39.4347 178.372 52.3819 197.166 77.4412C215.961 102.5 225.358 97.4886 225.358 62.4056C225.358 27.3227 230.788 18.3431 241.647 35.4669C252.506 52.5908 262.112 60.1085 270.465 58.0203C278.818 55.932 284.247 65.1204 286.753 85.5855C289.259 106.051 300.118 103.127 319.33 76.8147C338.542 50.5025 361.305 28.158 387.617 9.7812C413.929 -8.5956 421.029 -1.07782 408.917 32.3345C396.805 65.7469 392.002 87.6737 394.508 98.1151C397.014 108.556 417.27 109.183 455.277 99.9945C493.283 90.8061 507.066 95.6092 496.625 114.404C486.183 133.198 473.654 149.904 459.036 164.522C444.418 179.14 443.165 191.252 455.277 200.858C467.389 210.464 474.489 221.114 476.577 232.809Z" fill="#0D0D0D"/>
</svg>
