<svg width="72" height="57" viewBox="0 0 72 57" fill="none" xmlns="http://www.w3.org/2000/svg">
<path d="M27.792 1.68C29.232 0.271999 31.952 0.975998 31.28 3.248C30.8 4.88 28.88 5.744 27.408 6.288C27.376 6.544 27.344 6.768 27.312 7.024C27.056 9.104 26.96 11.184 26.928 13.264C26.8 18.288 26.928 23.312 26.8 28.368C26.672 32.976 26.48 37.744 25.232 42.192C24.368 45.296 22.768 48.592 19.504 49.68C16.368 50.704 12.976 49.584 10.992 46.992C8.528 43.856 8.016 39.44 8.144 35.568C8.496 25.584 13.744 15.312 23.056 10.96C23.6 10.736 24.688 11.184 23.888 11.568C22.672 12.112 21.488 12.784 20.368 13.584C12.368 19.28 8.24 30.544 9.776 40.176C10.288 43.504 11.76 47.568 15.248 48.848C18.576 50.064 21.36 48.08 22.8 45.136C24.656 41.328 25.008 36.752 25.264 32.56C25.584 27.472 25.488 22.32 25.52 17.2C25.552 13.776 25.456 10.192 25.968 6.768C23.664 7.472 21.232 7.824 18.832 8.048C15.888 8.336 12.88 8.464 9.904 8.336C8.08 8.272 5.968 7.888 4.272 8.688C2.256 9.648 1.712 12.048 1.84 14.064C1.872 14.64 0.496 14.832 0.464 14.288C0.368 12.752 0.592 11.184 1.456 9.872C3.376 6.928 7.088 7.376 10.128 7.504C13.296 7.632 16.464 7.504 19.6 7.152C21.744 6.896 24.016 6.576 26.128 5.872C26.16 5.648 26.224 5.424 26.256 5.2C26.512 4.016 26.896 2.608 27.792 1.68ZM29.904 3.344C30 3.12 30.16 2.352 29.936 2.192C29.616 1.936 28.816 2.256 28.56 2.48C28.496 2.576 28.432 2.704 28.4 2.8C27.984 3.568 27.728 4.432 27.568 5.296C27.664 5.264 27.792 5.2 27.888 5.168C28.688 4.752 29.584 4.208 29.904 3.344ZM42.1563 33.296C42.3163 32.784 43.6923 32.72 43.5003 33.296C42.9563 35.088 42.4123 37.04 41.3243 38.608C40.6203 39.632 39.2443 40.912 37.9963 39.952C37.3563 39.44 37.1643 38.448 37.0043 37.712C36.7803 36.368 36.7163 34.992 36.6843 33.616C36.6523 32.752 36.6523 31.92 36.6843 31.056C36.2683 32.368 35.7883 33.68 35.1803 34.896C34.5403 36.208 33.5483 38.032 31.8523 38.096C30.0602 38.16 29.7722 35.952 29.5802 34.608C29.1642 31.632 29.2922 28.56 29.5162 25.552C29.5482 25.04 30.9243 24.912 30.8603 25.552C30.7003 28.048 30.6043 30.576 30.7963 33.072C30.8603 33.744 30.9883 37.232 32.0443 37.232C32.5563 37.232 33.1963 36.048 33.4203 35.696C33.9323 34.8 34.3163 33.872 34.6683 32.912C35.5643 30.512 36.2043 28.048 36.7163 25.552C36.7803 25.328 37.1003 25.168 37.4203 25.136C37.8043 25.04 38.2843 25.136 38.2523 25.52C38.0283 29.36 37.7083 33.424 38.3483 37.264C38.4443 37.808 38.5723 39.504 39.4043 39.216C39.8203 39.056 40.3003 38.064 40.5243 37.68C41.2603 36.304 41.7083 34.768 42.1563 33.296ZM57.2423 33.392C57.4343 32.88 58.7783 32.816 58.5863 33.36C57.9783 35.184 56.0263 41.52 52.8583 40.08C51.2583 39.344 51.8023 36.016 51.8663 34.672C51.9303 33.264 52.0263 31.824 52.0583 30.384C52.0583 29.296 52.1223 27.984 51.7063 26.928C51.6103 26.704 51.2583 26.16 51.1623 26.16C50.6503 26.192 50.1383 27.952 50.0103 28.336C49.2103 30.672 48.7303 33.136 48.1543 35.536C48.1223 35.792 47.7703 35.92 47.4503 35.952C47.0983 36.048 46.6823 35.984 46.7143 35.696C46.7463 34.224 46.8103 32.784 46.7463 31.344C46.7463 30.832 46.7143 30.32 46.5863 29.84C46.5223 29.584 46.4583 29.264 46.2983 29.04C46.2983 29.072 46.2663 29.072 46.2663 29.104C45.4663 29.84 45.2103 31.632 44.9223 32.624C44.5063 34.256 44.1543 35.92 43.8023 37.584C43.7383 37.872 43.2903 38.032 42.9383 38.032C42.5862 38.064 42.2662 38 42.2662 37.712C42.1382 33.744 42.1702 29.744 42.2982 25.744C42.2982 25.136 43.6743 24.976 43.6423 25.488C43.5783 27.888 43.5463 30.288 43.5463 32.688C43.7383 31.984 43.9303 31.312 44.1863 30.64C44.5383 29.648 44.9863 28.368 46.1383 28.112C47.3543 27.856 47.8983 28.816 48.1223 30.128C48.2823 29.552 48.4423 28.944 48.6663 28.336C49.0183 27.28 49.4983 25.872 50.6823 25.456C52.8263 24.688 53.3063 27.28 53.3703 28.784C53.5303 31.504 53.0823 34.256 53.1783 36.976C53.1783 37.424 53.1463 39.184 53.7543 39.344C54.4903 39.536 55.4183 37.68 55.6743 37.2C56.3143 35.984 56.7943 34.672 57.2423 33.392ZM70.3208 33.008C70.8328 32.752 71.9208 33.2 71.1208 33.584C69.5208 34.384 67.9208 35.312 66.4167 36.4C66.4167 36.752 66.4167 37.104 66.4167 37.456C66.4808 41.712 66.4167 46.128 65.4248 50.288C64.7848 52.848 63.4728 56.24 60.3368 56.304C58.1608 56.336 56.9767 54.352 56.6247 52.432C56.0807 49.84 56.6567 47.056 57.7447 44.688C59.3128 41.2 61.9688 38.416 65.0408 36.208C64.9768 34.192 64.8808 32.176 64.7848 30.16C64.3048 31.792 63.7288 33.392 62.9928 34.896C62.3528 36.208 61.3608 38.032 59.6968 38.096C57.9047 38.16 57.5847 35.952 57.3927 34.608C56.9767 31.632 57.1367 28.56 57.3287 25.552C57.3927 25.04 58.7368 24.912 58.6728 25.552C58.5128 28.048 58.4168 30.576 58.6088 33.072C58.6728 33.744 58.8328 37.232 59.8888 37.232C60.4008 37.232 61.0088 36.048 61.2328 35.696C61.7448 34.8 62.1608 33.872 62.5128 32.912C63.4088 30.512 64.0168 28.048 64.5608 25.552C64.6568 25.072 65.8728 24.944 65.9048 25.456C65.9048 25.456 65.9368 25.488 65.9368 25.52C66.0648 28.784 66.2888 32.016 66.3848 35.28C67.6648 34.416 68.9768 33.68 70.3208 33.008ZM64.7528 46.096C65.0408 43.184 65.1048 40.304 65.0728 37.392C62.1927 39.664 59.7928 42.448 58.5768 45.936C57.7767 48.208 57.3927 50.896 58.2568 53.232C58.8648 54.992 60.5608 56.208 62.0968 54.672C64.1448 52.592 64.4648 48.816 64.7528 46.096Z" fill="black"/>
</svg>
